<svg width="24" height="24" viewBox="0 0 24 24" fill="none" xmlns="http://www.w3.org/2000/svg">
<path d="M19.1746 13.8065L19.1746 14.8961C17.8764 15.1407 16.9028 16.2303 16.9028 17.5423L16.9028 18.0093C16.9028 19.4992 18.1546 20.7 19.7078 20.7L20.1946 20.7C21.7478 20.7 22.9996 19.4992 22.9996 18.0093L22.9996 17.5423C23.0228 16.2303 22.0491 15.1407 20.751 14.8961L20.751 13.8065C20.751 12.6501 19.7541 11.6939 18.5487 11.6939L12.7996 11.6939L12.7996 7.84838L13.2632 7.84838C14.8164 7.84838 16.0682 6.64758 16.0682 5.15768L16.0682 4.6907C16.0682 3.20081 14.8164 2 13.2632 2L10.7596 2C9.20638 2 7.95456 3.20081 7.95456 4.6907L7.95456 5.15768C7.95456 6.64757 9.20638 7.84838 10.7596 7.84838L11.2232 7.84838L11.2232 11.6939L5.4741 11.6939C4.26864 11.6939 3.27182 12.6501 3.27182 13.8065L3.27182 14.8961C1.97364 15.1407 0.999999 16.2303 0.999999 17.5423L0.999999 18.0093C0.999999 19.4992 2.25182 20.7 3.805 20.7L4.29182 20.7C5.84501 20.7 7.09683 19.4992 7.09683 18.0093L7.09683 17.5423C7.09683 16.2303 6.12319 15.1407 4.82501 14.8961L4.82501 13.8065C4.82501 13.4729 5.10319 13.2061 5.45092 13.2061L11.2232 13.2061L11.2232 14.8961C9.92502 15.1407 8.95138 16.2303 8.95138 17.5423L8.95138 18.0093C8.95138 19.4992 10.2032 20.7 11.7564 20.7L12.2432 20.7C13.7964 20.7 15.0482 19.4992 15.0482 18.0093L15.0482 17.5423C15.0714 16.2303 14.0978 15.1407 12.7996 14.8961L12.7996 13.2061L18.5487 13.2061C18.8964 13.2061 19.1746 13.4729 19.1746 13.8065ZM20.2178 16.3415C20.9132 16.3415 21.4696 16.8752 21.4696 17.5423L21.4696 18.0093C21.4696 18.6764 20.9132 19.2101 20.2178 19.2101L19.7309 19.2101C19.0355 19.2101 18.4791 18.6764 18.4791 18.0093L18.4791 17.5423C18.4791 16.8752 19.0355 16.3415 19.7309 16.3415L20.2178 16.3415ZM10.7596 6.35849C10.0641 6.35849 9.50775 5.8248 9.50775 5.15768L9.50775 4.6907C9.50775 4.02358 10.0641 3.48989 10.7596 3.48989L13.2632 3.48989C13.9587 3.48989 14.515 4.02358 14.515 4.6907L14.515 5.15768C14.515 5.8248 13.9587 6.35849 13.2632 6.35849L10.7596 6.35849ZM4.29182 16.3415C4.98728 16.3415 5.54365 16.8752 5.54365 17.5423L5.54365 18.0093C5.54365 18.6764 4.98728 19.2101 4.29182 19.2101L3.805 19.2101C3.10955 19.2101 2.55318 18.6764 2.55318 18.0093L2.55318 17.5423C2.55318 16.8752 3.10955 16.3415 3.805 16.3415L4.29182 16.3415ZM12.2432 16.3415C12.9387 16.3415 13.495 16.8752 13.495 17.5423L13.495 18.0093C13.495 18.6764 12.9387 19.2101 12.2432 19.2101L11.7796 19.2101C11.0841 19.2101 10.5277 18.6764 10.5277 18.0093L10.5277 17.5423C10.5277 16.8752 11.0841 16.3415 11.7796 16.3415L12.2432 16.3415Z" fill="#6C6E71"/>
<path fill-rule="evenodd" clip-rule="evenodd" d="M19.0747 14.8142L19.0747 13.8064C19.0747 13.5319 18.8452 13.306 18.5488 13.306L12.8997 13.306L12.8997 14.8142C14.1999 15.0964 15.1715 16.2057 15.1483 17.5431L15.1483 18.0092C15.1483 19.5582 13.8478 20.7999 12.2433 20.7999L11.7565 20.7999C10.152 20.7999 8.85148 19.5582 8.85148 18.0092L8.85148 17.5422C8.85148 16.206 9.82255 15.0965 11.1233 14.8142L11.1233 13.306L5.45101 13.306C5.15455 13.306 4.9251 13.5319 4.9251 13.8064L4.9251 14.8142C6.22586 15.0965 7.19693 16.206 7.19693 17.5422L7.19693 18.0092C7.19693 19.5582 5.89637 20.7999 4.29192 20.7999L3.8051 20.7999C2.20065 20.7999 0.900096 19.5582 0.900096 18.0092L0.900096 17.5422C0.900096 16.206 1.87117 15.0965 3.17192 14.8142L3.17192 13.8064C3.17192 12.5909 4.21747 11.5938 5.4742 11.5938L11.1233 11.5938L11.1233 7.94829L10.7597 7.94829C9.15521 7.94829 7.85466 6.70659 7.85466 5.15758L7.85466 4.6906C7.85466 3.1416 9.15521 1.8999 10.7597 1.8999L13.2633 1.8999C14.8678 1.8999 16.1683 3.1416 16.1683 4.6906L16.1683 5.15758C16.1683 6.70659 14.8678 7.94829 13.2633 7.94829L12.8997 7.94829L12.8997 11.5938L18.5488 11.5938C19.8055 11.5938 20.851 12.5909 20.851 13.8064L20.851 14.8142C22.1513 15.0964 23.1229 16.2057 23.0997 17.5431L23.0997 18.0092C23.0997 19.5582 21.7991 20.7999 20.1947 20.7999L19.7079 20.7999C18.1034 20.7999 16.8029 19.5582 16.8029 18.0092L16.8029 17.5422C16.8029 16.206 17.7739 15.0965 19.0747 14.8142ZM21.3697 17.5422C21.3697 16.9342 20.8621 16.4414 20.2179 16.4414L19.731 16.4414C19.0869 16.4414 18.5792 16.9342 18.5792 17.5422L18.5792 18.0092C18.5792 18.6172 19.0869 19.11 19.731 19.11L20.2179 19.11C20.8621 19.11 21.3697 18.6172 21.3697 18.0092L21.3697 17.5422ZM9.60784 5.15758C9.60784 5.76559 10.1155 6.25839 10.7597 6.25839L13.2633 6.25839C13.9075 6.25839 14.4151 5.76559 14.4151 5.15758L14.4151 4.6906C14.4151 4.0826 13.9075 3.58979 13.2633 3.58979L10.7597 3.58979C10.1155 3.58979 9.60784 4.0826 9.60784 4.6906L9.60784 5.15758ZM5.44374 17.5422C5.44374 16.9342 4.93611 16.4414 4.29192 16.4414L3.8051 16.4414C3.16091 16.4414 2.65328 16.9342 2.65328 17.5422L2.65328 18.0092C2.65328 18.6172 3.16091 19.11 3.8051 19.11L4.29192 19.11C4.93611 19.11 5.44374 18.6172 5.44374 18.0092L5.44374 17.5422ZM13.3951 17.5422C13.3951 16.9342 12.8875 16.4414 12.2433 16.4414L11.7797 16.4414C11.1355 16.4414 10.6278 16.9342 10.6278 17.5422L10.6278 18.0092C10.6278 18.6172 11.1355 19.11 11.7797 19.11L12.2433 19.11C12.8875 19.11 13.3951 18.6172 13.3951 18.0092L13.3951 17.5422Z" fill="#6C6E71"/>
</svg>
