<svg width="24" height="24" viewBox="0 0 24 24" fill="none" xmlns="http://www.w3.org/2000/svg">
<rect x="11.125" y="12.8555" width="8.59424" height="1.75" rx="0.875" transform="rotate(-90 11.125 12.8555)" fill="#6C6E71"/>
<rect x="11.2627" y="6.01123" width="1.75" height="5.30859" rx="0.875" transform="rotate(-90 11.2627 6.01123)" fill="#6C6E71"/>
<rect x="17.75" y="7.3252" width="1.75" height="9.34982" rx="0.875" fill="#6C6E71"/>
<rect x="7.64844" y="12.8755" width="1.75098" height="5.14209" rx="0.875488" transform="rotate(-90 7.64844 12.8755)" fill="#6C6E71"/>
<path d="M7.25049 10.125V13.875H3.50049V10.125H7.25049ZM7.25049 8.625H3.50049C3.10266 8.625 2.72113 8.78304 2.43983 9.06434C2.15852 9.34564 2.00049 9.72718 2.00049 10.125V13.875C2.00049 14.2728 2.15852 14.6544 2.43983 14.9357C2.72113 15.217 3.10266 15.375 3.50049 15.375H7.25049C7.64831 15.375 8.02984 15.217 8.31115 14.9357C8.59245 14.6544 8.75049 14.2728 8.75049 13.875V10.125C8.75049 9.72718 8.59245 9.34564 8.31115 9.06434C8.02984 8.78304 7.64831 8.625 7.25049 8.625Z" fill="#6C6E71"/>
<path d="M20.5 3.5V7.25H16.75V3.5H20.5ZM20.5 2H16.75C16.3522 2 15.9706 2.15804 15.6893 2.43934C15.408 2.72064 15.25 3.10218 15.25 3.5V7.25C15.25 7.64782 15.408 8.02936 15.6893 8.31066C15.9706 8.59196 16.3522 8.75 16.75 8.75H20.5C20.8978 8.75 21.2794 8.59196 21.5607 8.31066C21.842 8.02936 22 7.64782 22 7.25V3.5C22 3.10218 21.842 2.72064 21.5607 2.43934C21.2794 2.15804 20.8978 2 20.5 2Z" fill="#6C6E71"/>
<path d="M20.5 16.75V20.5H16.75V16.75H20.5ZM20.5 15.25H16.75C16.3522 15.25 15.9706 15.408 15.6893 15.6893C15.408 15.9706 15.25 16.3522 15.25 16.75V20.5C15.25 20.8978 15.408 21.2794 15.6893 21.5607C15.9706 21.842 16.3522 22 16.75 22H20.5C20.8978 22 21.2794 21.842 21.5607 21.5607C21.842 21.2794 22 20.8978 22 20.5V16.75C22 16.3522 21.842 15.9706 21.5607 15.6893C21.2794 15.408 20.8978 15.25 20.5 15.25Z" fill="#6C6E71"/>
</svg>
