<svg width="24" height="24" viewBox="0 0 24 24" fill="none" xmlns="http://www.w3.org/2000/svg">
<g clip-path="url(#clip0_12411_18408)">
<path d="M2.8623 16.9541H21.1377C21.7663 16.9541 22.2763 17.4632 22.2764 18.0918V19.7539C22.2761 20.3824 21.7662 20.8916 21.1377 20.8916H2.8623C2.23379 20.8916 1.7239 20.3824 1.72363 19.7539V18.0918C1.72375 17.4632 2.2337 16.9541 2.8623 16.9541ZM2.8623 10.0312H7.29297C7.92147 10.0315 8.43066 10.5414 8.43066 11.1699V12.8311C8.4306 13.4595 7.92143 13.9695 7.29297 13.9697H2.8623C2.23367 13.9697 1.7237 13.4597 1.72363 12.8311V11.1699C1.72363 10.5412 2.23363 10.0312 2.8623 10.0312ZM12.5537 10.0312H21.1377C21.7664 10.0312 22.2764 10.5412 22.2764 11.1699V12.8311C22.2763 13.4597 21.7663 13.9697 21.1377 13.9697H12.5537C11.9251 13.9697 11.4151 13.4597 11.415 12.8311V11.1699C11.415 10.5413 11.925 10.0313 12.5537 10.0312ZM2.8623 3.1084H11.4463C12.0749 3.10849 12.584 3.61845 12.584 4.24707V5.9082C12.584 6.53682 12.0749 7.04678 11.4463 7.04688H2.8623C2.23363 7.04688 1.72363 6.53688 1.72363 5.9082V4.24707C1.72363 3.61839 2.23363 3.1084 2.8623 3.1084ZM16.708 3.1084H21.1377C21.7664 3.1084 22.2764 3.61839 22.2764 4.24707V5.9082C22.2764 6.53688 21.7664 7.04688 21.1377 7.04688H16.708C16.0793 7.04688 15.5693 6.53688 15.5693 5.9082V4.24707C15.5693 3.61839 16.0793 3.1084 16.708 3.1084Z" stroke="#6C6E71" stroke-width="1.6"/>
</g>
<defs>
<clipPath id="clip0_12411_18408">
<rect width="24" height="24" fill="white"/>
</clipPath>
</defs>
</svg>
