<svg width="24" height="24" viewBox="0 0 24 24" fill="none" xmlns="http://www.w3.org/2000/svg">
<path d="M22.2807 20.0888C22.2511 20.0888 22.2511 20.0888 22.2215 20.0888H20.8605V15.7899C20.8901 15.2804 20.5055 14.8664 20.0321 14.8346C20.0025 14.8346 20.0025 14.8346 19.9729 14.8346C19.4699 14.8346 19.0853 15.2486 19.0853 15.7899V20.0888H16.7183V13.9111C16.7183 13.3698 16.3337 12.9558 15.8307 12.9558C15.3573 12.9877 14.9727 13.4016 14.9431 13.9111V20.0888H12.5761V16.5223C12.6057 16.0128 12.221 15.5988 11.7477 15.567C11.7181 15.567 11.7181 15.567 11.6885 15.567C11.1855 15.567 10.8009 15.981 10.8009 16.5223V20.0888H8.43389V12.7966C8.43389 12.2553 8.04926 11.8413 7.54627 11.8413C7.07288 11.8732 6.68825 12.2871 6.65866 12.7966V20.0888H4.29169V16.9044C4.32127 16.3949 3.93664 15.981 3.46324 15.9491C3.43366 15.9491 3.43366 15.9491 3.40407 15.9491C2.90109 15.9491 2.51645 16.3631 2.51645 16.9044V20.0888H1.77678C1.30338 20.0569 0.918747 20.4709 0.88916 20.9804C0.88916 21.0122 0.88916 21.0122 0.88916 21.0441C0.88916 21.5854 1.27379 21.9994 1.77678 21.9994H22.2215C22.7245 21.9994 23.1091 21.5854 23.1091 21.0441C23.1387 20.5346 22.7541 20.1206 22.2807 20.0888Z" fill="#6C6E71"/>
<path d="M2.0136 11.1726C2.19112 11.3637 2.42782 11.4592 2.66452 11.4592C2.87163 11.4592 3.10832 11.3637 3.25626 11.2045L7.57599 6.71455L12.0732 10.5039C12.3987 10.7905 12.8425 10.7905 13.168 10.5358L19.2925 5.37713L19.0854 8.05198C19.0558 8.59332 19.4109 9.03912 19.9138 9.07097H19.973C20.4464 9.07097 20.831 8.68885 20.8606 8.17935L21.2157 3.40283V3.33915C21.2157 3.11624 21.1565 2.92518 21.0382 2.73412C20.831 2.44753 20.5352 2.32016 20.2097 2.38384L15.5941 2.00172C15.1207 1.96988 14.7065 2.38384 14.6473 2.89334C14.6177 3.43468 14.9728 3.88049 15.4758 3.91233L17.9315 4.10339L12.6058 8.56147L8.07897 4.70842C7.75351 4.38998 7.25053 4.42182 6.92507 4.74026L2.04319 9.83521C1.68814 10.1855 1.65855 10.7587 1.98401 11.1408L2.0136 11.1726Z" fill="#6C6E71"/>
</svg>
