<svg width="24" height="24" viewBox="0 0 24 24" fill="none" xmlns="http://www.w3.org/2000/svg">
<path d="M10.7751 9.53516H13.2472C13.9291 9.53516 14.4833 10.0893 14.4833 10.7712V13.2433C14.4833 13.9252 13.9291 14.4794 13.2472 14.4794H10.7751C10.0933 14.4794 9.53906 13.9252 9.53906 13.2433V10.7712C9.53906 10.0893 10.0933 9.53516 10.7751 9.53516Z" fill="#FF7415"/>
<path d="M6.39852 10.5H7.9065C8.32264 10.5 8.66049 10.8379 8.66049 11.254V12.762C8.66049 13.1781 8.32264 13.516 7.9065 13.516H6.39852C5.98238 13.516 5.64453 13.1781 5.64453 12.762V11.254C5.64453 10.8379 5.98238 10.5 6.39852 10.5Z" fill="#FF7415"/>
<path d="M4.81194 12.6255C4.81194 12.9674 4.53589 13.2435 4.19392 13.2435H2.95786C2.61795 13.2435 2.33984 12.9674 2.33984 12.6255V11.3915C2.33984 11.0495 2.61589 10.7734 2.95786 10.7734H4.19392C4.53589 10.7734 4.81194 11.0495 4.81194 11.3915V12.6255Z" fill="#FF7415"/>
<path d="M0.387296 11.2364H1.15982C1.37201 11.2364 1.54507 11.4095 1.54507 11.6217V12.3942C1.54507 12.6064 1.37201 12.7794 1.15982 12.7794H0.385236C0.173047 12.7794 0 12.6064 0 12.3942V11.6217C0 11.4095 0.173047 11.2344 0.387296 11.2344V11.2364Z" fill="#FF7415"/>
<path d="M9.20347 8.44372C9.20347 8.8578 8.86562 9.19565 8.44948 9.19565H6.9415C6.52536 9.19565 6.1875 8.8578 6.1875 8.44372V6.93368C6.1875 6.51754 6.52536 6.17969 6.9415 6.17969H8.44948C8.86562 6.17969 9.20347 6.51548 9.20347 6.93368V8.44372Z" fill="#FF7415"/>
<path d="M5.98383 5.39705C5.98383 5.73696 5.70778 6.01301 5.3658 6.01301H4.12975C3.78778 6.01301 3.51172 5.73696 3.51172 5.39705V4.16099C3.51172 3.81902 3.78778 3.54297 4.12975 3.54297H5.3658C5.70778 3.54297 5.98383 3.81902 5.98383 4.16099V5.39705Z" fill="#FF7415"/>
<path d="M3.29301 2.90386C3.29301 3.11605 3.11996 3.29116 2.90777 3.29116H2.13524C1.92305 3.29116 1.75 3.11811 1.75 2.90386V2.13339C1.75 1.9212 1.92305 1.74609 2.13524 1.74609H2.90777C3.11996 1.74609 3.29301 1.91914 3.29301 2.13339V2.90386Z" fill="#FF7415"/>
<path d="M11.6235 0H12.3961C12.6083 0 12.7834 0.173047 12.7834 0.387296V1.15983C12.7834 1.37202 12.6103 1.54712 12.3961 1.54712H11.6235C11.4114 1.54712 11.2383 1.37408 11.2383 1.16189V0.387296C11.2383 0.173047 11.4114 0 11.6256 0H11.6235Z" fill="#FF7415"/>
<path d="M13.2455 4.16061C13.2455 4.50259 12.9694 4.77864 12.6274 4.77864H11.3914C11.0494 4.77864 10.7734 4.50259 10.7734 4.16061V2.92662C10.7734 2.58465 11.0494 2.30859 11.3914 2.30859H12.6274C12.9694 2.30859 13.2455 2.58671 13.2455 2.92662V4.16061Z" fill="#FF7415"/>
<path d="M13.5178 7.91041C13.5178 8.32655 13.18 8.6644 12.7638 8.6644H11.2559C10.8397 8.6644 10.5039 8.32655 10.5039 7.91041V6.40243C10.5039 5.98629 10.8418 5.64844 11.2559 5.64844H12.7638C13.18 5.64844 13.5178 5.98629 13.5178 6.40243V7.91041Z" fill="#FF7415"/>
<path d="M17.8285 8.43776C17.8285 8.85389 17.4906 9.19175 17.0745 9.19175H15.5665C15.1504 9.19175 14.8125 8.85389 14.8125 8.43776V6.92977C14.8125 6.51364 15.1504 6.17578 15.5665 6.17578H17.0745C17.4906 6.17578 17.8285 6.51364 17.8285 6.92977V8.43776Z" fill="#FF7415"/>
<path d="M18.6259 3.55469H19.8619C20.2018 3.55469 20.4799 3.83074 20.4799 4.17271V5.40876C20.4799 5.75074 20.2039 6.02679 19.8619 6.02679H18.6259C18.2839 6.02679 18.0078 5.75074 18.0078 5.40876V4.17271C18.0078 3.8328 18.2839 3.55469 18.6259 3.55469Z" fill="#FF7415"/>
<path d="M21.094 1.74425H21.8686C22.0808 1.74425 22.2539 1.91729 22.2539 2.12948V2.90202C22.2539 3.1142 22.0808 3.28725 21.8686 3.28725H21.0961C20.8839 3.28725 20.7109 3.1142 20.7109 2.90202V2.12742C20.7109 1.91523 20.8839 1.74219 21.0961 1.74219L21.094 1.74425Z" fill="#FF7415"/>
<path d="M16.1155 10.5H17.6214C18.0375 10.5 18.3754 10.8379 18.3754 11.254V12.762C18.3754 13.1781 18.0375 13.516 17.6214 13.516H16.1134C15.6973 13.516 15.3594 13.1781 15.3594 12.762V11.254C15.3594 10.8379 15.6973 10.5 16.1134 10.5H16.1155Z" fill="#FF7415"/>
<path d="M19.8212 10.7734H21.0572C21.3971 10.7734 21.6753 11.0495 21.6753 11.3915V12.6275C21.6753 12.9695 21.3992 13.2455 21.0572 13.2455H19.8212C19.4813 13.2455 19.2031 12.9695 19.2031 12.6275V11.3915C19.2031 11.0495 19.4792 10.7734 19.8212 10.7734Z" fill="#FF7415"/>
<path d="M24.0098 12.3942C24.0098 12.6064 23.8368 12.7794 23.6246 12.7794H22.8521C22.6378 12.7794 22.4648 12.6064 22.4648 12.3942V11.6196C22.4648 11.4074 22.6378 11.2344 22.8521 11.2344H23.6246C23.8368 11.2344 24.0098 11.4074 24.0098 11.6196V12.3942Z" fill="#FF7415"/>
<path d="M21.112 20.7227H21.8846C22.0968 20.7227 22.2698 20.8957 22.2698 21.1079V21.8804C22.2698 22.0926 22.0968 22.2677 21.8825 22.2677H21.11C20.8957 22.2677 20.7227 22.0947 20.7227 21.8804V21.1079C20.7227 20.8957 20.8957 20.7227 21.1079 20.7227H21.112Z" fill="#FF7415"/>
<path d="M20.4682 19.8658C20.4682 20.2057 20.1922 20.4818 19.8502 20.4818H18.6141C18.2722 20.4818 17.9961 20.2057 17.9961 19.8658V18.6297C17.9961 18.2878 18.2722 18.0117 18.6141 18.0117H19.8502C20.1922 18.0117 20.4682 18.2878 20.4682 18.6297V19.8658Z" fill="#FF7415"/>
<path d="M15.5978 14.8438H17.1056C17.5218 14.8438 17.8596 15.1816 17.8596 15.5977V17.1056C17.8596 17.5218 17.5218 17.8596 17.1056 17.8596H15.5978C15.1816 17.8596 14.8438 17.5218 14.8438 17.1056V15.5977C14.8438 15.1816 15.1816 14.8438 15.5978 14.8438Z" fill="#FF7415"/>
<path d="M11.26 15.3516H12.7659C13.182 15.3516 13.5199 15.6894 13.5199 16.1056V17.6135C13.5199 18.0297 13.182 18.3675 12.7659 18.3675H11.2579C10.8418 18.3675 10.5039 18.0297 10.5039 17.6135V16.1056C10.5039 15.6894 10.8418 15.3516 11.2579 15.3516H11.26Z" fill="#FF7415"/>
<path d="M6.91805 14.8438H8.42603C8.84217 14.8438 9.18002 15.1816 9.18002 15.5977V17.1056C9.18002 17.5218 8.84217 17.8596 8.42603 17.8596H6.91805C6.50191 17.8596 6.16406 17.5218 6.16406 17.1056V15.5977C6.16406 15.1816 6.50191 14.8458 6.91599 14.8458L6.91805 14.8438Z" fill="#FF7415"/>
<path d="M4.1433 18.0117H5.37936C5.72133 18.0117 5.99738 18.2878 5.99738 18.6297V19.8658C5.99738 20.2078 5.72133 20.4838 5.37936 20.4838H4.14536C3.80339 20.4838 3.52734 20.2057 3.52734 19.8658V18.6297C3.52734 18.2898 3.80339 18.0117 4.14536 18.0117H4.1433Z" fill="#FF7415"/>
<path d="M2.1373 20.7227H2.90983C3.12202 20.7227 3.29507 20.8957 3.29507 21.1079V21.8804C3.29507 22.0947 3.12202 22.2677 2.90777 22.2677H2.13524C1.92305 22.2677 1.75 22.0947 1.75 21.8825V21.11C1.75 20.8978 1.92305 20.7247 2.13524 20.7247L2.1373 20.7227Z" fill="#FF7415"/>
<path d="M12.7854 23.6148C12.7854 23.829 12.6124 24.0021 12.3981 24.0021H11.6256C11.4114 24.0021 11.2383 23.829 11.2383 23.6148V22.8423C11.2383 22.6301 11.4114 22.457 11.6256 22.457H12.3981C12.6124 22.457 12.7854 22.6301 12.7854 22.8423V23.6148Z" fill="#FF7415"/>
<path d="M13.2455 21.059C13.2455 21.401 12.9694 21.6771 12.6274 21.6771H11.3914C11.0515 21.6771 10.7734 21.401 10.7734 21.059V19.8251C10.7734 19.4851 11.0494 19.207 11.3914 19.207H12.6274C12.9694 19.207 13.2455 19.4851 13.2455 19.8251V21.059Z" fill="#FF7415"/>
</svg>
