<svg width="181" height="47" viewBox="0 0 181 47" fill="none" xmlns="http://www.w3.org/2000/svg">
<path d="M86.1557 0.35498H76.9238C74.3101 0.539181 71.8163 1.52466 69.7813 3.17753C67.7463 4.8304 66.2686 7.07054 65.5491 9.59364L61.0259 30.5766C62.7721 30.3603 64.4543 29.7829 65.9659 28.8809C68.0277 27.2694 69.3785 24.9143 69.7295 22.3188L70.6401 17.7183C70.7093 17.3791 70.8973 17.0758 71.1701 16.8631C71.4429 16.6504 71.7827 16.5423 72.1281 16.5584C74.6104 16.5584 76.0657 14.2352 76.886 11.7099H72.1281C71.9267 11.7056 71.7282 11.6614 71.544 11.5798C71.3598 11.4981 71.1937 11.3807 71.0551 11.2343C70.9166 11.0879 70.8083 10.9155 70.7368 10.7269C70.6653 10.5383 70.6318 10.3374 70.6384 10.1358C70.7753 9.49156 71.0918 8.89937 71.5512 8.42797C72.0106 7.95656 72.5941 7.62525 73.2339 7.47251H77.6177C81.8834 7.47251 84.9466 4.17008 86.1492 0.35829L86.1557 0.35498Z" fill="#395E89"/>
<path fill-rule="evenodd" clip-rule="evenodd" d="M84.6067 14.8575C84.6976 14.4372 84.6931 14.0019 84.5936 13.5835C84.4941 13.1652 84.302 12.7746 84.0316 12.4405C83.7613 12.1064 83.4196 11.8373 83.0316 11.653C82.6436 11.4688 82.2192 11.3741 81.7898 11.376C80.7242 11.4266 79.704 11.8224 78.8826 12.504C78.0611 13.1855 77.483 14.1158 77.2353 15.1549L73.9229 30.7635C75.9965 30.6164 77.9725 29.825 79.5756 28.4996C81.1787 27.1743 82.329 25.3811 82.866 23.37L84.6051 14.8493L84.6067 14.8575Z" fill="#395E89"/>
<path d="M100.936 0.00170898C98.728 0.368605 96.6777 1.38107 95.0429 2.91178C93.4082 4.44249 92.2619 6.42309 91.7482 8.60451L91.1674 11.3763H90.0501C88.8473 11.4236 87.7054 11.9187 86.8479 12.7647C85.9904 13.6107 85.4789 14.7467 85.4136 15.9504C85.4007 16.3491 85.4704 16.7461 85.6182 17.1165C85.766 17.4869 85.9888 17.8227 86.2725 18.1026C86.5562 18.3826 86.8948 18.6007 87.2668 18.7432C87.6388 18.8858 88.0362 18.9496 88.4341 18.9308H89.594L87.8533 26.7779C87.7171 27.2271 87.6908 27.7026 87.7764 28.1642C87.862 28.6258 88.0571 29.0601 88.3452 29.4305C88.6334 29.8008 89.0061 30.0964 89.4321 30.2925C89.8582 30.4885 90.325 30.5791 90.7933 30.5568C91.8718 30.5293 92.9093 30.1367 93.7364 29.443C94.5636 28.7492 95.1315 27.7953 95.3477 26.7368L100.936 0.00333856V0.00170898Z" fill="#395E89"/>
<path fill-rule="evenodd" clip-rule="evenodd" d="M161.46 11.4584H148.376C146.478 11.5268 144.675 12.3071 143.325 13.6444C141.975 14.9817 141.177 16.7783 141.088 18.6778C141.08 19.3028 141.198 19.923 141.435 20.5013C141.672 21.0795 142.023 21.6038 142.467 22.0428C142.911 22.4818 143.44 22.8264 144.02 23.0559C144.601 23.2854 145.222 23.3951 145.846 23.3785H150.648C150.777 23.3703 150.907 23.3895 151.029 23.4347C151.15 23.4799 151.261 23.5501 151.354 23.6409C151.446 23.7316 151.519 23.8408 151.567 23.9615C151.615 24.0821 151.637 24.2115 151.632 24.3413C151.614 24.7292 151.451 25.096 151.175 25.3685C150.899 25.6411 150.53 25.7994 150.142 25.8118H145.056C143.649 25.8269 142.285 26.2968 141.166 27.1516C140.047 28.0063 139.233 29.2001 138.847 30.5552H152.262C154.151 30.4708 155.939 29.6841 157.279 28.349C158.619 27.0139 159.414 25.2263 159.507 23.3358C159.534 22.711 159.429 22.0877 159.2 21.506C158.971 20.9242 158.623 20.397 158.178 19.9581C157.733 19.5193 157.201 19.1787 156.617 18.9582C156.033 18.7377 155.409 18.6422 154.786 18.6778C154 18.6778 150.648 18.6351 149.864 18.6778C149.731 18.682 149.599 18.6587 149.475 18.6093C149.352 18.5599 149.24 18.4855 149.147 18.3908C149.054 18.296 148.981 18.183 148.934 18.0588C148.886 17.9346 148.865 17.8019 148.871 17.669C148.897 17.2837 149.063 16.9212 149.338 16.6502C149.613 16.3793 149.977 16.2185 150.362 16.1985H156.449C159.017 16.1985 160.838 13.7685 161.46 11.4568V11.4584Z" fill="#395E89"/>
<path d="M178 30.5566H168.798C167.793 30.5945 166.792 30.4255 165.855 30.0601C164.918 29.6947 164.066 29.1405 163.352 28.432C162.638 27.7235 162.076 26.8757 161.702 25.9411C161.329 25.0066 161.15 24.0051 161.179 22.9987C161.233 21.4909 161.585 20.0089 162.215 18.6379C162.844 17.2669 163.737 16.0341 164.844 15.0104C166.958 12.8374 169.828 11.565 172.855 11.4582C174.881 11.378 176.857 12.0999 178.355 13.4676C179.064 14.1913 179.618 15.0529 179.982 15.9993C180.346 16.9457 180.513 17.9567 180.471 18.97C180.474 20.0662 180.308 21.1563 179.979 22.2018H169.626C168.998 22.2233 168.402 22.4818 167.956 22.9255C167.51 23.3691 167.248 23.9652 167.223 24.5941C167.223 25.5963 167.753 26.1056 168.798 26.1056H171.571H171.863C173.237 26.0477 174.591 26.4559 175.705 27.2642C176.819 28.0726 177.629 29.2337 178.002 30.5598L178 30.5566ZM170.827 15.4638C170.192 15.4797 169.587 15.7391 169.138 16.1884C168.907 16.402 168.721 16.6595 168.591 16.9459C168.462 17.2322 168.39 17.5417 168.381 17.8561C168.38 18.0621 168.421 18.2662 168.5 18.4564C168.579 18.6466 168.695 18.8191 168.842 18.9637C168.988 19.1083 169.162 19.2221 169.353 19.2986C169.544 19.375 169.749 19.4124 169.955 19.4087H172.721C173.349 19.3873 173.946 19.1288 174.391 18.6851C174.837 18.2414 175.099 17.6454 175.124 17.0165C175.132 16.8081 175.097 16.6003 175.02 16.4064C174.943 16.2126 174.827 16.0369 174.679 15.8906C174.53 15.7443 174.353 15.6306 174.158 15.5568C173.964 15.4831 173.756 15.4508 173.548 15.4622L170.827 15.4638Z" fill="#395E89"/>
<path d="M97.3672 30.762L103.078 3.78051C103.325 2.7361 103.907 1.8013 104.734 1.11883C105.539 0.417829 106.564 0.0223881 107.631 0.00158475C108.1 -0.0120451 108.567 0.0783961 108.997 0.266433C109.427 0.45447 109.811 0.735451 110.12 1.08926C110.34 1.36174 110.495 1.68103 110.574 2.02274C110.652 2.36445 110.651 2.71953 110.571 3.06087L108.791 11.4583H110.861C112.877 11.4173 114.829 12.1667 116.3 13.5466C117.01 14.2566 117.568 15.1029 117.943 16.0347C118.317 16.9664 118.499 17.9644 118.479 18.9685C118.428 20.4809 118.079 21.9684 117.453 23.3457C116.827 24.723 115.936 25.963 114.83 26.9946C112.717 29.1785 109.841 30.4571 106.806 30.5616C105.336 30.5792 103.882 30.2571 102.557 29.6202C101.844 29.2514 101.061 29.0422 100.26 29.0073C99.6829 29.0846 99.1282 29.2804 98.6305 29.5823C98.1328 29.8843 97.7027 30.2859 97.3672 30.762ZM107.244 18.5068C106.475 18.5332 105.745 18.8496 105.2 19.3926C104.654 19.9357 104.334 20.6651 104.304 21.4347C104.295 21.6887 104.338 21.942 104.432 22.1782C104.526 22.4145 104.668 22.6287 104.848 22.8071C105.029 22.9856 105.245 23.1244 105.482 23.2148C105.72 23.3053 105.973 23.3453 106.227 23.3323H110.469C111.245 23.3129 111.984 22.9959 112.533 22.4468C112.816 22.1849 113.043 21.8692 113.202 21.5183C113.361 21.1673 113.448 20.7881 113.459 20.4029C113.463 20.1476 113.416 19.8941 113.319 19.6579C113.222 19.4217 113.078 19.2078 112.896 19.0293C112.527 18.6843 112.039 18.4959 111.534 18.5035L107.244 18.5068Z" fill="#395E89"/>
<path d="M136.336 30.7636C136.038 30.2783 135.634 29.8674 135.153 29.5622C134.673 29.257 134.129 29.0655 133.564 29.0023C132.656 29.0221 131.765 29.2468 130.957 29.6595C129.756 30.2398 128.437 30.5328 127.104 30.5156C125.091 30.5584 123.14 29.814 121.666 28.4404C120.973 27.7699 120.427 26.9618 120.064 26.0679C119.673 25.0936 119.477 24.0521 119.485 23.0021C119.557 19.9664 120.828 17.0832 123.019 14.9842C125.123 12.8258 127.985 11.5758 130.996 11.501H140.435L136.333 30.762L136.336 30.7636ZM127.506 18.5068C126.739 18.5343 126.01 18.8511 125.466 19.3936C124.922 19.9362 124.602 20.6646 124.571 21.433C124.562 21.6872 124.606 21.9406 124.699 22.1769C124.793 22.4133 124.935 22.6276 125.116 22.8061C125.297 22.9845 125.513 23.1233 125.751 23.2137C125.988 23.304 126.242 23.3438 126.496 23.3307H130.733C131.51 23.3116 132.249 22.9946 132.799 22.4451C133.08 22.1836 133.307 21.8687 133.466 21.5186C133.624 21.1686 133.712 20.7904 133.723 20.4061C133.727 20.1525 133.679 19.9008 133.583 19.6662C133.487 19.4316 133.344 19.219 133.163 19.0414C132.982 18.8637 132.767 18.7248 132.531 18.6329C132.295 18.541 132.043 18.4981 131.79 18.5068H127.506Z" fill="#395E89"/>
<path fill-rule="evenodd" clip-rule="evenodd" d="M45.0898 11.4402H37.4739C34.7975 11.5597 32.2332 12.5507 30.1705 14.2627C28.1078 15.9746 26.6593 18.3139 26.0451 20.9253L23.9746 30.7045C26.0458 30.5497 28.0181 29.7556 29.6198 28.4314C31.2215 27.1073 32.3738 25.3183 32.9178 23.3109L33.41 20.9598C33.5531 20.409 33.8665 19.9176 34.3052 19.5558C34.744 19.1941 35.2857 18.9804 35.8529 18.9455C39.8692 18.9455 43.5525 16.3446 45.0848 11.4336L45.0898 11.4402Z" fill="#395E89"/>
<path d="M0 42.0004L6.4576 11.4404H17.2646C18.2524 11.3814 19.2416 11.5293 20.1691 11.8748C21.0965 12.2203 21.9418 12.7557 22.651 13.4469C23.3601 14.1381 23.9175 14.9697 24.2876 15.8888C24.6576 16.8079 24.8322 17.7942 24.8001 18.7846C24.7112 21.8466 23.4382 24.7544 21.2497 26.8945C20.2072 28.0039 18.9565 28.8965 17.5692 29.5212C16.1818 30.146 14.6851 30.4906 13.1646 30.5355H9.81109L8.98256 34.4787C8.67909 36.0514 7.97299 37.5183 6.93339 38.7357C6.09478 39.6846 5.06774 40.4479 3.91787 40.9768C2.68647 41.558 1.35798 41.9051 0 42.0004H0ZM12.7971 18.5234C12.0284 18.5502 11.2982 18.8669 10.7529 19.4103C10.2076 19.9536 9.88761 20.6832 9.85703 21.4529C9.84731 21.7075 9.89071 21.9612 9.98446 22.1981C10.0782 22.4349 10.2203 22.6495 10.4015 22.8282C10.5828 23.007 10.7993 23.1459 11.0372 23.2361C11.2751 23.3263 11.5291 23.3659 11.7832 23.3522H16.0226C16.799 23.333 17.5384 23.016 18.0882 22.4666C18.3701 22.2049 18.597 21.8894 18.7556 21.5387C18.9142 21.1881 19.0013 20.8092 19.0119 20.4244C19.0158 20.1714 18.9684 19.9202 18.8726 19.686C18.7768 19.4519 18.6345 19.2396 18.4545 19.0621C18.2745 18.8845 18.0603 18.7454 17.8251 18.6531C17.5898 18.5608 17.3383 18.5172 17.0857 18.525L12.7971 18.5234Z" fill="#395E89"/>
<path d="M49.5169 30.4993C47.5008 30.5406 45.5485 29.7912 44.0765 28.411C43.3663 27.7002 42.8072 26.8528 42.4328 25.9199C42.0583 24.987 41.8763 23.9878 41.8977 22.9825C41.9393 21.4704 42.2798 19.9816 42.8993 18.602C43.5188 17.2224 44.4051 15.9795 45.5071 14.9449C47.6432 12.7772 50.5341 11.5213 53.5742 11.4404C55.5785 11.402 57.518 12.1517 58.9769 13.5286C59.6845 14.2397 60.2418 15.0863 60.6153 16.0179C60.9888 16.9494 61.1709 17.9469 61.1507 18.9506C61.108 20.4622 60.7672 21.9505 60.1477 23.3297C59.5282 24.7088 58.6424 25.9517 57.5413 26.9865C55.4207 29.1525 52.5446 30.4115 49.5169 30.4993V30.4993ZM49.8253 18.5053C49.0568 18.5321 48.3267 18.8489 47.7817 19.3923C47.2367 19.9356 46.9171 20.6653 46.8869 21.4348C46.8772 21.6894 46.9206 21.9433 47.0143 22.1802C47.1081 22.4171 47.2501 22.6318 47.4313 22.8107C47.6126 22.9896 47.829 23.1286 48.0669 23.219C48.3048 23.3094 48.5589 23.3492 48.813 23.3358H53.0541C53.8296 23.3155 54.5678 22.9979 55.1164 22.4485C55.3987 22.1867 55.626 21.871 55.7849 21.52C55.9438 21.1691 56.0311 20.7898 56.0417 20.4046C56.0461 20.1493 55.9982 19.8957 55.9012 19.6595C55.8041 19.4233 55.6599 19.2094 55.4774 19.0311C55.1077 18.6862 54.6192 18.4978 54.114 18.5053H49.8253Z" fill="#395E89"/>
<path d="M160.91 36.9971C160.989 37.4435 160.97 37.9018 160.853 38.3398C160.736 38.7778 160.525 39.1849 160.234 39.5324C159.944 39.8799 159.58 40.1594 159.17 40.3513C158.76 40.5432 158.313 40.6427 157.86 40.6429H151.168C150.492 40.6488 149.836 40.4142 149.316 39.9809C148.797 39.5477 148.448 38.9439 148.331 38.277C148.245 37.835 148.258 37.3795 148.368 36.9429C148.478 36.5064 148.683 36.0995 148.968 35.7515C149.253 35.4034 149.612 35.1226 150.018 34.9292C150.424 34.7359 150.868 34.6347 151.317 34.6328H158.078C158.751 34.6377 159.401 34.8762 159.918 35.3077C160.435 35.7392 160.786 36.3369 160.912 36.9988L160.91 36.9971Z" fill="#FB973E"/>
<path d="M176.705 36.9971C176.784 37.4433 176.764 37.9015 176.648 38.3394C176.531 38.7773 176.32 39.1843 176.029 39.5318C175.739 39.8793 175.376 40.1588 174.966 40.3508C174.556 40.5428 174.109 40.6425 173.656 40.6429H166.961C166.285 40.6485 165.629 40.4138 165.11 39.9806C164.59 39.5474 164.241 38.9437 164.124 38.277C164.038 37.8351 164.051 37.3795 164.161 36.9429C164.271 36.5064 164.476 36.0995 164.761 35.7515C165.046 35.4034 165.405 35.1226 165.811 34.9292C166.217 34.7359 166.661 34.6347 167.11 34.6328H173.87C174.543 34.6374 175.193 34.8758 175.71 35.3073C176.227 35.7388 176.578 36.3367 176.703 36.9988L176.705 36.9971Z" fill="#FB973E"/>
<path d="M145.119 36.9971C145.197 37.4434 145.177 37.9015 145.061 38.3393C144.944 38.777 144.732 39.1839 144.442 39.5312C144.151 39.8786 143.788 40.1581 143.378 40.3502C142.968 40.5422 142.522 40.6421 142.069 40.6429H135.372C134.696 40.6481 134.04 40.4133 133.521 39.9802C133.002 39.547 132.652 38.9436 132.535 38.277C132.45 37.835 132.463 37.3795 132.573 36.9431C132.684 36.5067 132.889 36.1 133.174 35.752C133.459 35.404 133.818 35.1233 134.224 34.9299C134.63 34.7364 135.073 34.635 135.523 34.6328H142.282C142.955 34.6382 143.605 34.8769 144.122 35.3083C144.639 35.7396 144.991 36.337 145.117 36.9988L145.119 36.9971Z" fill="#FB973E"/>
<path d="M28.9867 44.048C29.2907 44.288 29.6827 44.408 30.1627 44.408C30.7227 44.408 31.4347 44.224 32.2987 43.856C32.8107 40.896 33.2107 37.984 33.4987 35.12H33.4507C32.5867 35.12 31.7947 35.416 31.0747 36.008C30.3547 36.6 29.7547 37.336 29.2747 38.216C28.8107 39.096 28.4907 39.968 28.3147 40.832C28.2347 41.232 28.1947 41.624 28.1947 42.008C28.1947 42.952 28.4587 43.632 28.9867 44.048ZM34.0747 27.512C34.0907 27.224 34.2907 26.976 34.6747 26.768C35.0587 26.544 35.4507 26.432 35.8507 26.432C36.3467 26.432 36.5867 26.616 36.5707 26.984C36.2987 32.264 35.7227 37.712 34.8427 43.328C35.0987 43.456 35.2267 43.624 35.2267 43.832C35.2267 44.072 35.0347 44.304 34.6507 44.528L34.5067 45.416C34.4427 45.72 34.2107 45.984 33.8107 46.208C33.4267 46.416 33.0427 46.52 32.6587 46.52C32.4187 46.52 32.2267 46.472 32.0827 46.376C31.9387 46.264 31.8907 46.104 31.9387 45.896C31.9387 45.816 31.9467 45.76 31.9627 45.728C30.9387 46.048 30.0907 46.208 29.4187 46.208C28.6827 46.208 28.0187 46.048 27.4267 45.728C26.8347 45.424 26.4027 44.984 26.1307 44.408C25.8587 43.832 25.7227 43.184 25.7227 42.464C25.7227 42.208 25.7547 41.856 25.8187 41.408C26.0427 40.112 26.5227 38.864 27.2587 37.664C27.9947 36.464 28.9227 35.48 30.0427 34.712C31.1627 33.944 32.3707 33.536 33.6667 33.488C33.8587 31.296 33.9947 29.304 34.0747 27.512ZM45.9119 37.736C45.9119 36.04 44.9199 34.704 42.9359 33.728C42.4399 34.144 41.9439 34.696 41.4479 35.384C40.8399 36.264 40.3359 37.248 39.9359 38.336C39.7759 38.768 39.6239 39.36 39.4799 40.112C39.3359 40.848 39.2639 41.536 39.2639 42.176C39.2639 42.832 39.3519 43.36 39.5279 43.76C39.7199 44.144 40.0239 44.336 40.4399 44.336C40.7759 44.336 41.1679 44.2 41.6159 43.928C42.8479 43.208 43.8719 42.312 44.6879 41.24C45.5039 40.168 45.9119 39 45.9119 37.736ZM46.5839 33.392C47.1599 33.936 47.5999 34.552 47.9039 35.24C48.2239 35.928 48.3839 36.656 48.3839 37.424C48.3839 38.528 48.0639 39.648 47.4239 40.784C46.9919 41.552 46.3599 42.36 45.5279 43.208C44.6959 44.056 43.7679 44.776 42.7439 45.368C41.7359 45.944 40.7679 46.232 39.8399 46.232C39.2639 46.232 38.7199 46.104 38.2079 45.848C37.1199 45.256 36.5759 44.192 36.5759 42.656C36.5759 41.552 36.8239 40.344 37.3199 39.032C37.8159 37.704 38.3439 36.584 38.9039 35.672C40.2639 33.512 41.6959 32.152 43.1999 31.592C43.6159 31.432 44.0639 31.352 44.5439 31.352C45.1039 31.352 45.5759 31.496 45.9599 31.784C46.3439 32.056 46.5679 32.488 46.6319 33.08V33.176C46.6319 33.224 46.6159 33.296 46.5839 33.392ZM57.4404 30.464C57.5204 30.24 57.7284 30.048 58.0644 29.888C58.4004 29.712 58.7364 29.624 59.0724 29.624C59.5524 29.624 59.7924 29.792 59.7924 30.128C59.7924 30.176 59.7764 30.264 59.7444 30.392C59.0564 32.728 58.4484 34.512 57.9204 35.744C57.8244 35.984 57.6004 36.192 57.2484 36.368C56.9124 36.528 56.5764 36.608 56.2404 36.608C55.8404 36.608 55.6084 36.472 55.5444 36.2C55.2564 34.92 54.8084 34.28 54.2004 34.28C53.9124 34.28 53.5924 34.432 53.2404 34.736C52.4724 35.44 51.8644 36.392 51.4164 37.592C50.9844 38.792 50.7684 39.936 50.7684 41.024C50.7684 41.824 50.9044 42.544 51.1764 43.184C51.4484 43.808 51.9044 44.2 52.5444 44.36C52.6404 44.392 52.7924 44.408 53.0004 44.408C53.5284 44.408 54.0484 44.216 54.5604 43.832C55.0884 43.432 55.5204 43.024 55.8564 42.608C56.1924 42.176 56.6244 41.592 57.1524 40.856C57.2804 40.68 57.4804 40.544 57.7524 40.448C58.0244 40.336 58.2964 40.28 58.5684 40.28C58.8244 40.28 59.0244 40.328 59.1684 40.424C59.3284 40.504 59.4084 40.632 59.4084 40.808C59.4084 40.968 59.3524 41.136 59.2404 41.312C58.3924 42.64 57.3604 43.792 56.1444 44.768C54.9284 45.728 53.6484 46.208 52.3044 46.208C52.0324 46.208 51.7604 46.184 51.4884 46.136C50.4164 45.96 49.6164 45.44 49.0884 44.576C48.5604 43.696 48.2964 42.68 48.2964 41.528C48.2964 41.112 48.3364 40.664 48.4164 40.184C48.6724 38.648 49.1844 37.216 49.9524 35.888C50.7204 34.544 51.7284 33.56 52.9764 32.936C53.6004 32.632 54.2244 32.48 54.8484 32.48C55.4404 32.48 55.9844 32.64 56.4804 32.96L57.4404 30.464ZM63.6464 34.76C63.6464 35.368 63.7984 35.904 64.1024 36.368C64.4224 36.832 64.8064 37.224 65.2544 37.544C65.7024 37.864 66.3104 38.24 67.0784 38.672C68.1184 39.264 68.9104 39.8 69.4544 40.28C70.0144 40.76 70.3824 41.36 70.5584 42.08C70.6224 42.4 70.6544 42.632 70.6544 42.776C70.6544 43.896 70.0624 44.704 68.8784 45.2C67.6944 45.68 66.3504 45.92 64.8464 45.92C64.2544 45.92 63.7344 45.88 63.2864 45.8C62.7584 45.704 62.2064 45.52 61.6304 45.248C61.0704 44.96 60.5984 44.616 60.2144 44.216C59.8464 43.8 59.6624 43.376 59.6624 42.944C59.6624 42.272 60.1824 41.656 61.2224 41.096C61.5104 40.952 61.7904 40.88 62.0624 40.88C62.3184 40.88 62.5264 40.936 62.6864 41.048C62.8624 41.16 62.9504 41.296 62.9504 41.456C62.9504 41.744 62.7184 42.024 62.2544 42.296C62.1584 42.344 62.1104 42.416 62.1104 42.512C62.1104 42.704 62.2624 42.936 62.5664 43.208C62.8704 43.48 63.1104 43.664 63.2864 43.76C63.7664 44.032 64.5344 44.2 65.5904 44.264C65.7184 44.28 65.9424 44.288 66.2624 44.288C66.8384 44.288 67.3024 44.192 67.6544 44C68.0064 43.808 68.1584 43.456 68.1104 42.944C68.0464 42.256 67.3504 41.48 66.0224 40.616L65.1104 40.04C64.2784 39.528 63.5904 39.08 63.0464 38.696C62.5184 38.296 62.0624 37.824 61.6784 37.28C61.2944 36.72 61.1024 36.096 61.1024 35.408C61.1024 34.976 61.1824 34.544 61.3424 34.112C61.6944 33.072 62.3504 32.272 63.3104 31.712C64.2704 31.136 65.3024 30.848 66.4064 30.848C67.5424 30.848 68.4944 31.136 69.2624 31.712C70.0464 32.288 70.4384 33.104 70.4384 34.16C70.4384 34.496 70.3904 34.856 70.2944 35.24C70.2304 35.528 69.9904 35.776 69.5744 35.984C69.1584 36.192 68.7664 36.296 68.3984 36.296C68.1744 36.296 67.9984 36.248 67.8704 36.152C67.7584 36.056 67.7344 35.92 67.7984 35.744C67.8944 35.408 67.9424 35.072 67.9424 34.736C67.9424 34.208 67.8064 33.76 67.5344 33.392C67.2624 33.024 66.8624 32.768 66.3344 32.624C66.0464 32.56 65.8304 32.528 65.6864 32.528C65.1104 32.528 64.6224 32.736 64.2224 33.152C63.8384 33.552 63.6464 34.088 63.6464 34.76Z" fill="#FB973E"/>
</svg>
