<svg width="181" height="47" viewBox="0 0 181 47" fill="none" xmlns="http://www.w3.org/2000/svg">
<g clip-path="url(#clip0_166_38)">
<path d="M62.8882 8.56641H56.2363C54.353 8.69944 52.5562 9.41166 51.0899 10.6063C49.6236 11.8009 48.5589 13.4199 48.0404 15.2434L44.7812 30.4084C46.0395 30.2521 47.2516 29.8347 48.3407 29.1828C49.8264 28.0182 50.7996 26.3161 51.0526 24.4402L51.7087 21.1154C51.7585 20.8702 51.8939 20.651 52.0905 20.4973C52.2871 20.3435 52.5319 20.2654 52.7809 20.277C54.5695 20.277 55.618 18.5979 56.209 16.7729H52.7809C52.6357 16.7698 52.4926 16.7378 52.36 16.6788C52.2272 16.6198 52.1076 16.535 52.0077 16.4292C51.9079 16.3234 51.8299 16.1987 51.7783 16.0624C51.7269 15.9261 51.7027 15.781 51.7075 15.6353C51.8061 15.1696 52.0341 14.7416 52.3651 14.4009C52.6961 14.0603 53.1166 13.8208 53.5777 13.7104H56.7363C59.8099 13.7104 62.0169 11.3237 62.8835 8.56878L62.8882 8.56641Z" fill="#062D59"/>
<path fill-rule="evenodd" clip-rule="evenodd" d="M61.7704 19.047C61.8358 18.7432 61.8327 18.4285 61.761 18.1263C61.6893 17.8239 61.5509 17.5416 61.356 17.3001C61.1613 17.0587 60.915 16.8642 60.6354 16.731C60.3558 16.5979 60.0501 16.5294 59.7407 16.5308C58.973 16.5673 58.2378 16.8534 57.646 17.346C57.0541 17.8386 56.6376 18.511 56.4591 19.2619L54.0723 30.5426C55.5664 30.4364 56.9902 29.8643 58.1453 28.9066C59.3005 27.9487 60.1292 26.6527 60.5162 25.1992L61.7693 19.041L61.7704 19.047Z" fill="#062D59"/>
<path d="M73.5369 8.31104C71.946 8.57622 70.4688 9.30797 69.2909 10.4143C68.113 11.5206 67.2871 12.952 66.9169 14.5285L66.4984 16.5318H65.6934C64.8267 16.5661 64.004 16.9239 63.3861 17.5352C62.7681 18.1467 62.3997 18.9678 62.3526 19.8377C62.3434 20.1258 62.3936 20.4128 62.5001 20.6804C62.6066 20.9481 62.767 21.1908 62.9715 21.3932C63.1759 21.5955 63.4198 21.7531 63.6879 21.8561C63.9559 21.9592 64.2423 22.0053 64.529 21.9918H65.3647L64.1105 27.663C64.0124 27.9877 63.9933 28.3313 64.055 28.6649C64.1167 28.9986 64.2573 29.3124 64.4649 29.5801C64.6725 29.8478 64.9411 30.0614 65.2481 30.2031C65.5551 30.3448 65.8915 30.4102 66.2289 30.3941C67.006 30.3743 67.7536 30.0905 68.3495 29.5891C68.9455 29.0878 69.3547 28.3983 69.5105 27.6333L73.5369 8.31229V8.31104Z" fill="#062D59"/>
<path fill-rule="evenodd" clip-rule="evenodd" d="M117.147 16.591H107.719C106.352 16.6404 105.053 17.2043 104.08 18.1708C103.108 19.1374 102.532 20.4358 102.468 21.8087C102.462 22.2603 102.547 22.7086 102.718 23.1265C102.889 23.5443 103.142 23.9233 103.462 24.2405C103.782 24.5579 104.163 24.807 104.581 24.9728C105 25.1387 105.447 25.2179 105.896 25.2059H109.357C109.45 25.2001 109.543 25.2139 109.631 25.2466C109.719 25.2793 109.798 25.33 109.865 25.3955C109.932 25.4611 109.984 25.5401 110.019 25.6273C110.054 25.7145 110.07 25.808 110.066 25.9018C110.053 26.1821 109.935 26.4472 109.736 26.6441C109.537 26.8413 109.272 26.9556 108.993 26.9645H105.328C104.314 26.9755 103.331 27.3151 102.524 27.9328C101.718 28.5505 101.132 29.4134 100.854 30.3927H110.52C111.88 30.3318 113.169 29.7632 114.134 28.7983C115.101 27.8333 115.672 26.5414 115.74 25.175C115.759 24.7235 115.684 24.2731 115.519 23.8526C115.353 23.4322 115.103 23.0511 114.783 22.734C114.462 22.4169 114.079 22.1706 113.658 22.0113C113.237 21.8518 112.788 21.7829 112.339 21.8087C111.772 21.8087 109.357 21.7777 108.792 21.8087C108.696 21.8117 108.601 21.7949 108.512 21.7591C108.423 21.7234 108.342 21.6696 108.275 21.6012C108.208 21.5327 108.156 21.451 108.122 21.3613C108.087 21.2715 108.072 21.1755 108.076 21.0795C108.095 20.8011 108.215 20.539 108.413 20.3433C108.611 20.1474 108.873 20.0313 109.151 20.0168H113.536C115.387 20.0168 116.699 18.2606 117.147 16.5898V16.591Z" fill="#062D59"/>
<path d="M129.064 30.3937H122.434C121.709 30.4211 120.988 30.299 120.312 30.0349C119.638 29.7708 119.025 29.3703 118.509 28.8582C117.995 28.3462 117.59 27.7335 117.321 27.0579C117.051 26.3825 116.923 25.6588 116.943 24.9314C116.983 23.8416 117.236 22.7706 117.691 21.7797C118.144 20.7889 118.787 19.8978 119.584 19.158C121.108 17.5876 123.176 16.668 125.357 16.5908C126.816 16.5328 128.241 17.0545 129.319 18.043C129.831 18.566 130.23 19.1887 130.492 19.8727C130.755 20.5567 130.875 21.2874 130.845 22.0197C130.846 22.812 130.727 23.5998 130.49 24.3555H123.031C122.578 24.371 122.148 24.5579 121.827 24.8785C121.505 25.1991 121.317 25.6299 121.299 26.0844C121.299 26.8088 121.68 27.1768 122.434 27.1768H124.641C125.632 27.135 126.607 27.43 127.411 28.0142C128.213 28.5984 128.796 29.4376 129.065 30.396L129.064 30.3937ZM123.895 19.4857C123.439 19.4972 123.002 19.6847 122.678 20.0095C122.513 20.1638 122.379 20.3499 122.285 20.5569C122.191 20.7639 122.14 20.9875 122.133 21.2146C122.133 21.3636 122.162 21.5111 122.218 21.6485C122.276 21.7859 122.36 21.9106 122.465 22.0152C122.571 22.1197 122.697 22.2019 122.834 22.2573C122.972 22.3124 123.118 22.3395 123.267 22.3368H125.26C125.713 22.3213 126.143 22.1345 126.463 21.8139C126.785 21.4932 126.974 21.0623 126.992 20.6079C126.998 20.4572 126.972 20.3071 126.917 20.167C126.861 20.0269 126.778 19.8998 126.671 19.7941C126.564 19.6885 126.436 19.6062 126.296 19.5529C126.156 19.4996 126.005 19.4763 125.857 19.4846L123.895 19.4857Z" fill="#062D59"/>
<path d="M70.9629 30.5425L75.078 11.0421C75.2559 10.2874 75.6747 9.6117 76.2708 9.11849C76.8509 8.61189 77.5899 8.32605 78.3584 8.31103C78.6966 8.30115 79.0327 8.36648 79.3427 8.50239C79.6527 8.6383 79.929 8.84141 80.1518 9.09709C80.3105 9.29407 80.4222 9.52472 80.4786 9.77177C80.5349 10.0187 80.5344 10.2754 80.4768 10.522L79.1942 16.5911H80.686C82.1383 16.5614 83.5446 17.1031 84.6048 18.1004C85.1159 18.6135 85.5185 19.2252 85.7882 19.8986C86.058 20.5719 86.1894 21.2932 86.1748 22.0189C86.138 23.1121 85.8868 24.1871 85.4357 25.1825C84.9845 26.1778 84.3423 27.074 83.5457 27.8197C82.023 29.398 79.9505 30.3221 77.7638 30.3976C76.7047 30.4104 75.657 30.1776 74.7021 29.7172C74.189 29.4507 73.6242 29.2995 73.0471 29.2743C72.6315 29.3302 72.2319 29.4716 71.8732 29.6899C71.5146 29.9081 71.2047 30.1984 70.9629 30.5425ZM78.0795 21.6853C77.5257 21.7043 76.9995 21.9331 76.6066 22.3255C76.2137 22.718 75.9831 23.2451 75.9611 23.8013C75.9544 23.985 75.9858 24.168 76.0534 24.3387C76.121 24.5095 76.2231 24.6643 76.3534 24.7932C76.4837 24.9222 76.6392 25.0226 76.8102 25.0879C76.9812 25.1533 77.1639 25.1822 77.3465 25.1728H80.4036C80.9626 25.1588 81.4949 24.9296 81.8907 24.5328C82.0941 24.3435 82.2578 24.1154 82.3723 23.8617C82.4868 23.608 82.5498 23.334 82.5574 23.0556C82.5606 22.8712 82.5264 22.688 82.4566 22.5173C82.3869 22.3466 82.2832 22.1919 82.1519 22.0628C81.8861 21.8135 81.5344 21.6774 81.1707 21.6829L78.0795 21.6853Z" fill="#062D59"/>
<path d="M99.0443 30.5432C98.8296 30.1924 98.5381 29.8954 98.1918 29.6749C97.8456 29.4543 97.4539 29.316 97.0466 29.2703C96.3928 29.2846 95.7507 29.4469 95.1681 29.7453C94.3031 30.1646 93.3528 30.3764 92.3924 30.3639C90.9417 30.3949 89.536 29.8569 88.4736 28.8642C87.9743 28.3795 87.5813 27.7955 87.3198 27.1494C87.0382 26.4454 86.8964 25.6926 86.9025 24.9337C86.9545 22.7397 87.8701 20.656 89.4488 19.1389C90.9646 17.579 93.027 16.6756 95.1965 16.6216H101.997L99.0421 30.5421L99.0443 30.5432ZM92.682 21.6848C92.1291 21.7047 91.604 21.9336 91.2119 22.3258C90.8197 22.7179 90.5894 23.2443 90.5671 23.7997C90.5605 23.9834 90.592 24.1665 90.6596 24.3374C90.7273 24.5082 90.8296 24.6631 90.96 24.792C91.0904 24.921 91.2461 25.0214 91.4171 25.0866C91.5883 25.1519 91.7711 25.1807 91.9538 25.1712H95.0073C95.5668 25.1575 96.0996 24.9283 96.4957 24.5312C96.6984 24.3422 96.8617 24.1146 96.976 23.8615C97.0902 23.6086 97.1532 23.3353 97.1612 23.0576C97.1641 22.8742 97.1298 22.6923 97.0605 22.5228C96.9911 22.3533 96.8882 22.1996 96.758 22.0712C96.6277 21.9429 96.4729 21.8424 96.3028 21.7759C96.1327 21.7095 95.951 21.6786 95.7687 21.6848H92.682Z" fill="#062D59"/>
<path fill-rule="evenodd" clip-rule="evenodd" d="M33.2983 16.578H27.8106C25.8822 16.6643 24.0347 17.3806 22.5484 18.6178C21.062 19.8551 20.0184 21.5458 19.5759 23.4331L18.084 30.5009C19.5764 30.389 20.9974 29.8151 22.1516 28.8581C23.3057 27.901 24.1359 26.608 24.5279 25.1573L24.8825 23.458C24.9857 23.0599 25.2114 22.7049 25.5276 22.4433C25.8437 22.1819 26.234 22.0275 26.6428 22.0022C29.5366 22.0022 32.1905 20.1225 33.2946 16.5732L33.2983 16.578Z" fill="#062D59"/>
<path d="M0.808594 38.6646L5.46161 16.578H13.2483C13.9602 16.5353 14.6729 16.6422 15.3412 16.892C16.0095 17.1417 16.6186 17.5286 17.1296 18.0281C17.6404 18.5277 18.0422 19.1288 18.3087 19.7929C18.5754 20.4572 18.7012 21.1701 18.678 21.8859C18.614 24.0989 17.6967 26.2004 16.1199 27.7471C15.3687 28.5489 14.4675 29.194 13.4679 29.6455C12.4683 30.097 11.3898 30.3462 10.2942 30.3785H7.87785L7.28089 33.2284C7.06226 34.3651 6.55353 35.4252 5.80439 36.3051C5.20018 36.991 4.46017 37.5426 3.63157 37.9248C2.74439 38.3448 1.78713 38.5957 0.808594 38.6646ZM10.0294 21.6971C9.47549 21.7165 8.94937 21.9454 8.55653 22.3381C8.16356 22.7307 7.93304 23.258 7.91101 23.8143C7.90401 23.9983 7.93529 24.1818 8.00287 24.3528C8.07033 24.524 8.1727 24.6791 8.30336 24.8083C8.43389 24.9375 8.58994 25.0379 8.76127 25.1031C8.93273 25.1683 9.11582 25.1968 9.29878 25.187H12.3535C12.9129 25.1731 13.4457 24.944 13.8418 24.5469C14.0449 24.3577 14.2085 24.1298 14.3227 23.8764C14.437 23.6229 14.4998 23.349 14.5073 23.0709C14.5102 22.8881 14.476 22.7065 14.407 22.5373C14.338 22.3681 14.2355 22.2147 14.1057 22.0864C13.9761 21.9581 13.8218 21.8575 13.6522 21.7908C13.4827 21.7241 13.3015 21.6926 13.1196 21.6983L10.0294 21.6971Z" fill="#062D59"/>
<path d="M36.4873 30.3521C35.0346 30.382 33.6279 29.8404 32.5673 28.8428C32.0556 28.3292 31.6527 27.7168 31.3829 27.0425C31.1131 26.3683 30.9819 25.646 30.9973 24.9196C31.0273 23.8268 31.2726 22.7507 31.719 21.7537C32.1654 20.7566 32.8041 19.8583 33.5981 19.1105C35.1372 17.5438 37.2202 16.6362 39.4107 16.5777C40.8549 16.55 42.2524 17.0918 43.3035 18.087C43.8134 18.6008 44.215 19.2127 44.484 19.886C44.7532 20.5593 44.8844 21.2801 44.8699 22.0056C44.8391 23.098 44.5936 24.1737 44.1471 25.1705C43.7009 26.1672 43.0626 27.0655 42.2692 27.8134C40.7412 29.3787 38.6689 30.2887 36.4873 30.3521ZM36.7095 21.6837C36.1558 21.7031 35.6297 21.9321 35.2371 22.3247C34.8444 22.7175 34.614 23.2448 34.5923 23.801C34.5853 23.985 34.6166 24.1684 34.6841 24.3397C34.7516 24.511 34.854 24.6661 34.9845 24.7954C35.1152 24.9247 35.2711 25.0252 35.4426 25.0905C35.6139 25.1558 35.797 25.1846 35.9801 25.1749H39.036C39.5948 25.1602 40.1266 24.9307 40.522 24.5336C40.7253 24.3444 40.8892 24.1162 41.0035 23.8626C41.1181 23.6089 41.181 23.3348 41.1886 23.0565C41.1918 22.8719 41.1574 22.6887 41.0874 22.518C41.0174 22.3473 40.9136 22.1927 40.782 22.0637C40.5156 21.8145 40.1637 21.6783 39.7996 21.6837H36.7095Z" fill="#062D59"/>
<path d="M130.448 36.015C130.364 36.3312 130.211 36.625 130.002 36.8759C129.793 37.1267 129.532 37.3285 129.236 37.467C128.941 37.6054 128.618 37.6772 128.293 37.6775H123.472C122.985 37.6816 122.513 37.5123 122.139 37.1997C121.765 36.8869 121.513 36.451 121.429 35.9697C121.367 35.6507 121.377 35.3218 121.456 35.0068C121.535 34.6917 121.682 34.398 121.887 34.1468C122.094 33.8955 122.352 33.6929 122.645 33.5532C122.936 33.4137 123.257 33.3406 123.579 33.3394H128.449C128.933 33.3429 129.403 33.5149 129.774 33.8264C130.146 34.1377 130.399 34.5686 130.49 35.0459C130.55 35.3649 130.531 35.7022 130.448 36.015Z" fill="#FF7415"/>
<path d="M119.152 36.015C119.069 36.3312 118.916 36.625 118.707 36.8759C118.498 37.1267 118.236 37.3285 117.941 37.467C117.646 37.6054 117.323 37.6772 116.997 37.6775H112.178C111.691 37.6816 111.218 37.5123 110.844 37.1997C110.47 36.8869 110.218 36.451 110.134 35.9697C110.072 35.6507 110.081 35.3218 110.161 35.0068C110.24 34.6917 110.388 34.398 110.593 34.1468C110.799 33.8955 111.057 33.6929 111.349 33.5532C111.641 33.4137 111.961 33.3406 112.286 33.3394H117.154C117.639 33.3429 118.107 33.5149 118.479 33.8264C118.851 34.1377 119.104 34.5686 119.195 35.0459C119.255 35.3649 119.236 35.7022 119.152 36.015Z" fill="#FF7415"/>
<path d="M107.854 36.015C107.77 36.3312 107.618 36.625 107.408 36.8759C107.199 37.1267 106.937 37.3285 106.642 37.467C106.347 37.6054 106.024 37.6772 105.698 37.6775H100.879C100.392 37.6816 99.9192 37.5123 99.545 37.1997C99.1709 36.8869 98.9195 36.451 98.8355 35.9697C98.7736 35.6507 98.7826 35.3218 98.8619 35.0068C98.9413 34.6917 99.0888 34.398 99.2942 34.1468C99.4997 33.8955 99.7579 33.6929 100.05 33.5532C100.343 33.4137 100.662 33.3406 100.986 33.3394H105.856C106.34 33.3429 106.808 33.5149 107.181 33.8264C107.552 34.1377 107.805 34.5686 107.896 35.0459C107.957 35.3649 107.937 35.7022 107.854 36.015Z" fill="#FF7415"/>
<path d="M91.0703 38.5919V32.8647H94.6029V33.4292H91.7556V35.4255H94.3581V35.9819H91.7556V38.0274H94.6029V38.5919H91.0703Z" fill="black"/>
<path d="M85.1035 38.5919V32.8647H85.7887L88.8318 37.4546V32.8647H89.5171V38.5919H88.8318L85.7887 34.002V38.5919H85.1035Z" fill="black"/>
<path d="M80.1641 38.5919V32.8647H83.6966V33.4292H80.8494V35.4255H83.452V35.9819H80.8494V38.0274H83.6966V38.5919H80.1641Z" fill="black"/>
<path d="M76.1115 38.6901C75.5785 38.6901 75.1107 38.5675 74.7082 38.3219C74.3057 38.0711 73.993 37.7247 73.7699 37.283C73.5471 36.8411 73.4355 36.3257 73.4355 35.7366C73.4355 35.1529 73.5471 34.6376 73.7699 34.1903C73.9985 33.743 74.3193 33.3938 74.7327 33.143C75.1515 32.8921 75.6437 32.7666 76.2093 32.7666C76.8511 32.7666 77.3869 32.922 77.8165 33.233C78.2462 33.5384 78.5208 33.9666 78.6405 34.5176H77.8492C77.7731 34.1739 77.5935 33.9012 77.3108 33.6993C77.0279 33.4976 76.6607 33.3966 76.2093 33.3966C75.7906 33.3966 75.4234 33.4921 75.108 33.6829C74.7979 33.8684 74.5586 34.1357 74.3901 34.4848C74.2215 34.8339 74.1371 35.2512 74.1371 35.7366C74.1371 36.2221 74.2215 36.6421 74.3901 36.9966C74.5586 37.3457 74.7925 37.613 75.0916 37.7983C75.3962 37.9838 75.7443 38.0765 76.1359 38.0765C76.7451 38.0765 77.2046 37.8966 77.5146 37.5365C77.8246 37.1766 78.0015 36.6884 78.045 36.072H76.3969V35.532H78.7466V38.592H78.1183L78.0613 37.6511C77.9252 37.8748 77.7676 38.0656 77.5881 38.2238C77.414 38.3765 77.2074 38.4938 76.9681 38.5756C76.7287 38.652 76.4432 38.6901 76.1115 38.6901Z" fill="black"/>
<path d="M68.4863 38.5919V32.8647H70.3301C70.7762 32.8647 71.1405 32.9411 71.4233 33.0938C71.7061 33.2411 71.9155 33.4402 72.0516 33.6911C72.1875 33.9419 72.2556 34.2256 72.2556 34.542C72.2556 34.8473 72.1848 35.1283 72.0434 35.3846C71.9074 35.641 71.6953 35.8455 71.407 35.9982C71.1188 36.151 70.7489 36.2274 70.2975 36.2274H69.1716V38.5919H68.4863ZM71.5049 38.5919L70.2485 36.031H71.0155L72.3126 38.5919H71.5049ZM69.1716 35.6873H70.2812C70.7164 35.6873 71.0345 35.581 71.2357 35.3683C71.4423 35.1556 71.5457 34.8829 71.5457 34.5501C71.5457 34.212 71.4451 33.9447 71.2438 33.7483C71.0481 33.5466 70.7245 33.4456 70.2731 33.4456H69.1716V35.6873Z" fill="black"/>
<path d="M63.5449 38.5919V32.8647H67.0775V33.4292H64.2302V35.4255H66.8328V35.9819H64.2302V38.0274H67.0775V38.5919H63.5449Z" fill="black"/>
<path d="M58.4883 38.5919V32.8647H60.3484C60.7998 32.8647 61.1696 32.9411 61.4579 33.0938C61.7517 33.2411 61.9664 33.4402 62.1024 33.6911C62.2439 33.9419 62.3146 34.2284 62.3146 34.5501C62.3146 34.861 62.2439 35.1447 62.1024 35.401C61.9664 35.6519 61.7543 35.8538 61.4661 36.0065C61.1778 36.1591 60.8053 36.2355 60.3484 36.2355H59.1736V38.5919H58.4883ZM59.1736 35.6547H60.3402C60.7971 35.6547 61.1234 35.5537 61.3193 35.3519C61.515 35.1501 61.6129 34.8829 61.6129 34.5501C61.6129 34.1956 61.515 33.9229 61.3193 33.7319C61.1234 33.5355 60.7971 33.4374 60.3402 33.4374H59.1736V35.6547Z" fill="black"/>
<path d="M54.8386 38.5919V36.4156L52.9785 32.8647H53.7536L55.2874 35.9655H55.0834L56.6089 32.8647H57.3759L55.5239 36.4156V38.5919H54.8386Z" fill="black"/>
<path d="M51.1994 38.5919V32.8647H51.8847V38.5919H51.1994ZM47.5527 38.5919V32.8647H48.2379V38.5919H47.5527ZM48.1074 35.9574V35.3929H51.3708V35.9574H48.1074Z" fill="black"/>
<path d="M40.3652 38.5919V32.8647H43.8406V33.4292H41.0505V35.4419H43.4246V35.9982H41.0505V38.5919H40.3652Z" fill="black"/>
<path d="M36.2637 38.6901C35.7144 38.6901 35.2304 38.5675 34.8115 38.3219C34.3981 38.0711 34.0746 37.7247 33.8407 37.283C33.6122 36.8357 33.498 36.3174 33.498 35.7284C33.498 35.1448 33.6122 34.6321 33.8407 34.1903C34.0746 33.743 34.3981 33.3938 34.8115 33.143C35.2304 32.8921 35.7144 32.7666 36.2637 32.7666C36.8239 32.7666 37.3107 32.8921 37.7241 33.143C38.1374 33.3938 38.4583 33.743 38.6867 34.1903C38.9206 34.6321 39.0375 35.1448 39.0375 35.7284C39.0375 36.3174 38.9206 36.8357 38.6867 37.283C38.4583 37.7247 38.1374 38.0711 37.7241 38.3219C37.3107 38.5675 36.8239 38.6901 36.2637 38.6901ZM36.2637 38.0848C36.6771 38.0848 37.0387 37.992 37.3487 37.8066C37.6642 37.6156 37.9063 37.3457 38.0749 36.9966C38.2489 36.6421 38.3359 36.2193 38.3359 35.7284C38.3359 35.2375 38.2489 34.8175 38.0749 34.4684C37.9063 34.1139 37.6642 33.8439 37.3487 33.6584C37.0387 33.4729 36.6771 33.3803 36.2637 33.3803C35.8557 33.3803 35.494 33.4729 35.1787 33.6584C34.8687 33.8439 34.6266 34.1139 34.4526 34.4684C34.284 34.8175 34.1996 35.2375 34.1996 35.7284C34.1996 36.2193 34.284 36.6421 34.4526 36.9966C34.6266 37.3457 34.8687 37.6156 35.1787 37.8066C35.494 37.992 35.8557 38.0848 36.2637 38.0848Z" fill="black"/>
<path d="M27.6661 38.5919V33.4292H25.9609V32.8647H30.0564V33.4292H28.3514V38.5919H27.6661Z" fill="black"/>
<path d="M21.1562 38.5919V32.8647H23.0001C23.4461 32.8647 23.8104 32.9411 24.0932 33.0938C24.3761 33.2411 24.5854 33.4402 24.7215 33.6911C24.8574 33.9419 24.9255 34.2256 24.9255 34.542C24.9255 34.8473 24.8548 35.1283 24.7133 35.3846C24.5773 35.641 24.3652 35.8455 24.077 35.9982C23.7887 36.151 23.4188 36.2274 22.9674 36.2274H21.8416V38.5919H21.1562ZM24.1748 38.5919L22.9185 36.031H23.6854L24.9825 38.5919H24.1748ZM21.8416 35.6873H22.9511C23.3863 35.6873 23.7044 35.581 23.9056 35.3683C24.1123 35.1556 24.2156 34.8829 24.2156 34.5501C24.2156 34.212 24.115 33.9447 23.9138 33.7483C23.718 33.5466 23.3944 33.4456 22.943 33.4456H21.8416V35.6873Z" fill="black"/>
<path d="M15.0449 38.5919L17.1498 32.8647H17.8759L19.9725 38.5919H19.2464L17.5087 33.7238L15.7629 38.5919H15.0449ZM16.0076 37.1192L16.2034 36.5628H18.7896L18.9853 37.1192H16.0076Z" fill="black"/>
<path d="M11.0703 38.5919V32.8647H12.9304C13.3819 32.8647 13.7517 32.9411 14.04 33.0938C14.3337 33.2411 14.5486 33.4402 14.6845 33.6911C14.8259 33.9419 14.8966 34.2284 14.8966 34.5501C14.8966 34.861 14.8259 35.1447 14.6845 35.401C14.5486 35.6519 14.3364 35.8538 14.0481 36.0065C13.7599 36.1591 13.3873 36.2355 12.9304 36.2355H11.7556V38.5919H11.0703ZM11.7556 35.6547H12.9223C13.3792 35.6547 13.7054 35.5537 13.9013 35.3519C14.097 35.1501 14.195 34.8829 14.195 34.5501C14.195 34.1956 14.097 33.9229 13.9013 33.7319C13.7054 33.5355 13.3792 33.4374 12.9223 33.4374H11.7556V35.6547Z" fill="black"/>
<path d="M139.062 28.3827C139.328 28.5925 139.67 28.6973 140.09 28.6973C140.579 28.6973 141.201 28.5365 141.957 28.2149C142.404 25.6278 142.754 23.0826 143.005 20.5794H142.963C142.208 20.5794 141.516 20.8381 140.887 21.3555C140.257 21.8729 139.733 22.5162 139.314 23.2854C138.908 24.0545 138.628 24.8167 138.474 25.5718C138.405 25.9214 138.37 26.264 138.37 26.5997C138.37 27.4248 138.6 28.0191 139.062 28.3827ZM143.509 13.9298C143.523 13.6781 143.698 13.4613 144.033 13.2795C144.369 13.0837 144.712 12.9858 145.061 12.9858C145.495 12.9858 145.704 13.1467 145.69 13.4683C145.453 18.0832 144.949 22.8449 144.18 27.7534C144.404 27.8653 144.516 28.0121 144.516 28.1939C144.516 28.4037 144.348 28.6064 144.012 28.8022L143.886 29.5784C143.83 29.8441 143.628 30.0748 143.278 30.2706C142.942 30.4524 142.607 30.5433 142.271 30.5433C142.061 30.5433 141.894 30.5013 141.768 30.4174C141.642 30.3195 141.6 30.1797 141.642 29.9979C141.642 29.928 141.649 29.879 141.663 29.8511C140.768 30.1307 140.027 30.2706 139.439 30.2706C138.796 30.2706 138.216 30.1307 137.698 29.8511C137.181 29.5853 136.803 29.2008 136.566 28.6973C136.328 28.1939 136.209 27.6275 136.209 26.9982C136.209 26.7745 136.237 26.4668 136.293 26.0753C136.489 24.9425 136.908 23.8517 137.551 22.8029C138.195 21.7541 139.006 20.894 139.985 20.2228C140.964 19.5515 142.02 19.1949 143.152 19.153C143.32 17.2371 143.439 15.496 143.509 13.9298ZM153.855 22.8658C153.855 21.3835 152.988 20.2158 151.254 19.3627C150.82 19.7263 150.387 20.2088 149.953 20.8101C149.422 21.5793 148.981 22.4393 148.632 23.3902C148.492 23.7678 148.359 24.2853 148.233 24.9425C148.107 25.5858 148.044 26.1871 148.044 26.7465C148.044 27.3199 148.121 27.7814 148.275 28.131C148.443 28.4666 148.709 28.6344 149.072 28.6344C149.366 28.6344 149.708 28.5155 150.1 28.2778C151.177 27.6485 152.072 26.8654 152.785 25.9284C153.498 24.9915 153.855 23.9706 153.855 22.8658ZM154.442 19.0691C154.946 19.5445 155.33 20.0829 155.596 20.6843C155.876 21.2856 156.015 21.9219 156.015 22.5931C156.015 23.5581 155.736 24.537 155.176 25.5299C154.799 26.2011 154.246 26.9073 153.519 27.6485C152.792 28.3897 151.981 29.019 151.086 29.5364C150.205 30.0398 149.359 30.2916 148.548 30.2916C148.044 30.2916 147.569 30.1797 147.121 29.9559C146.17 29.4385 145.695 28.5085 145.695 27.166C145.695 26.2011 145.912 25.1453 146.345 23.9986C146.779 22.8379 147.24 21.859 147.73 21.0618C148.918 19.1739 150.17 17.9853 151.485 17.4958C151.848 17.356 152.24 17.286 152.659 17.286C153.149 17.286 153.561 17.4119 153.897 17.6636C154.232 17.9014 154.428 18.2789 154.484 18.7964V18.8803C154.484 18.9222 154.47 18.9852 154.442 19.0691ZM163.931 16.5099C164.001 16.3141 164.183 16.1463 164.476 16.0065C164.77 15.8526 165.064 15.7757 165.357 15.7757C165.777 15.7757 165.987 15.9226 165.987 16.2162C165.987 16.2582 165.973 16.3351 165.945 16.447C165.344 18.4887 164.812 20.048 164.351 21.1248C164.267 21.3345 164.071 21.5163 163.763 21.6702C163.47 21.81 163.176 21.8799 162.882 21.8799C162.533 21.8799 162.33 21.7611 162.274 21.5233C162.022 20.4046 161.631 19.8452 161.099 19.8452C160.848 19.8452 160.568 19.9781 160.26 20.2438C159.589 20.8591 159.058 21.6911 158.666 22.74C158.288 23.7888 158.1 24.7887 158.1 25.7396C158.1 26.4389 158.218 27.0682 158.456 27.6275C158.694 28.1729 159.092 28.5155 159.652 28.6554C159.736 28.6834 159.869 28.6973 160.05 28.6973C160.512 28.6973 160.966 28.5295 161.414 28.1939C161.875 27.8443 162.253 27.4877 162.547 27.1241C162.84 26.7465 163.218 26.2361 163.679 25.5928C163.791 25.439 163.966 25.3201 164.204 25.2362C164.442 25.1383 164.679 25.0894 164.917 25.0894C165.141 25.0894 165.316 25.1313 165.441 25.2152C165.581 25.2851 165.651 25.397 165.651 25.5508C165.651 25.6907 165.602 25.8375 165.504 25.9914C164.763 27.1521 163.861 28.1589 162.798 29.012C161.736 29.8511 160.617 30.2706 159.442 30.2706C159.204 30.2706 158.967 30.2496 158.729 30.2077C157.792 30.0538 157.093 29.5993 156.631 28.8442C156.17 28.075 155.939 27.187 155.939 26.1801C155.939 25.8165 155.974 25.425 156.044 25.0054C156.268 23.6629 156.715 22.4113 157.386 21.2506C158.058 20.0759 158.939 19.2159 160.029 18.6705C160.575 18.4048 161.12 18.272 161.666 18.272C162.183 18.272 162.659 18.4118 163.092 18.6915L163.931 16.5099ZM169.355 20.2647C169.355 20.7961 169.488 21.2646 169.754 21.6702C170.034 22.0757 170.369 22.4183 170.761 22.698C171.152 22.9777 171.684 23.3063 172.355 23.6839C173.264 24.2013 173.956 24.6698 174.432 25.0894C174.921 25.5089 175.243 26.0333 175.397 26.6626C175.452 26.9423 175.48 27.1451 175.48 27.2709C175.48 28.2498 174.963 28.956 173.928 29.3896C172.893 29.8091 171.719 30.0189 170.404 30.0189C169.887 30.0189 169.432 29.9839 169.041 29.914C168.579 29.8301 168.097 29.6693 167.593 29.4315C167.104 29.1798 166.691 28.8791 166.356 28.5295C166.034 28.1659 165.873 27.7953 165.873 27.4178C165.873 26.8304 166.328 26.292 167.237 25.8026C167.488 25.6767 167.733 25.6138 167.971 25.6138C168.195 25.6138 168.376 25.6627 168.516 25.7606C168.67 25.8585 168.747 25.9774 168.747 26.1172C168.747 26.3689 168.544 26.6137 168.139 26.8514C168.055 26.8933 168.013 26.9563 168.013 27.0402C168.013 27.208 168.146 27.4108 168.411 27.6485C168.677 27.8862 168.887 28.0471 169.041 28.131C169.46 28.3687 170.131 28.5155 171.054 28.5715C171.166 28.5855 171.362 28.5925 171.642 28.5925C172.145 28.5925 172.551 28.5085 172.858 28.3407C173.166 28.1729 173.299 27.8653 173.257 27.4178C173.201 26.8164 172.593 26.1382 171.432 25.383L170.635 24.8796C169.908 24.4321 169.306 24.0405 168.831 23.7049C168.369 23.3553 167.971 22.9427 167.635 22.4673C167.3 21.9778 167.132 21.4324 167.132 20.8311C167.132 20.4535 167.202 20.0759 167.342 19.6984C167.649 18.7894 168.223 18.0902 169.062 17.6007C169.901 17.0973 170.803 16.8455 171.768 16.8455C172.76 16.8455 173.593 17.0973 174.264 17.6007C174.949 18.1041 175.292 18.8173 175.292 19.7403C175.292 20.034 175.25 20.3486 175.166 20.6843C175.11 20.936 174.9 21.1527 174.537 21.3345C174.173 21.5163 173.83 21.6072 173.509 21.6072C173.313 21.6072 173.159 21.5653 173.047 21.4814C172.949 21.3975 172.928 21.2786 172.984 21.1248C173.068 20.8311 173.11 20.5374 173.11 20.2438C173.11 19.7823 172.991 19.3907 172.754 19.0691C172.516 18.7474 172.166 18.5237 171.705 18.3978C171.453 18.3419 171.264 18.3139 171.138 18.3139C170.635 18.3139 170.208 18.4957 169.859 18.8593C169.523 19.2089 169.355 19.6774 169.355 20.2647Z" fill="#FF7415"/>
</g>
<defs>
<clipPath id="clip0_166_38">
<rect width="181" height="47" fill="white"/>
</clipPath>
</defs>
</svg>
